<svg data-v-423bf9ae="" xmlns="http://www.w3.org/2000/svg" viewBox="0 0 167.49035348271101 60" class="font"><!----><!----><!----><g data-v-423bf9ae="" id="497a1001-d09a-4c1a-8162-55d2418fc45a" fill="black" transform="matrix(5.7915059834320255,0,0,5.7915059834320255,-8.281851746376049,-4.76837158203125e-7)"><path d="M6.22 5.08C7.11 4.72 7.49 3.82 7.49 2.95C7.49 1.46 6.48 0.57 4.93 0.57L1.43 0.57L1.43 10.22L5.28 10.22C6.99 10.22 8.01 8.93 8.01 7.56C8.01 6.55 7.45 5.40 6.22 5.08ZM4.91 1.44C5.94 1.44 6.57 2.04 6.57 3.02C6.57 3.98 6.05 4.72 5.10 4.72L2.35 4.72L2.35 1.44ZM5.12 9.35L2.35 9.35L2.35 5.53L5.08 5.53C6.34 5.53 7.08 6.45 7.08 7.49C7.08 8.48 6.37 9.35 5.12 9.35ZM15.39 3.68L15.39 4.94C14.90 4.06 13.89 3.54 12.78 3.54C10.95 3.54 9.46 4.96 9.46 6.94C9.46 8.93 10.96 10.36 12.78 10.36C13.87 10.36 14.90 9.84 15.39 8.95L15.39 10.22L16.28 10.22L16.28 3.68ZM12.85 9.51C11.48 9.51 10.36 8.39 10.36 6.93C10.36 5.49 11.48 4.40 12.85 4.40C14.15 4.40 15.39 5.39 15.39 6.97C15.39 8.48 14.21 9.51 12.85 9.51ZM20.37 10.36C21.73 10.36 22.78 9.62 22.78 8.46C22.78 7.70 22.39 6.93 21.11 6.62L20.15 6.38C19.67 6.27 19.14 6.01 19.14 5.39C19.14 4.77 19.66 4.34 20.41 4.34C21.06 4.34 21.63 4.73 21.67 5.32L22.54 5.32C22.50 4.14 21.49 3.54 20.40 3.54C19.15 3.54 18.24 4.31 18.24 5.38C18.24 6.47 18.98 6.94 19.91 7.17L20.85 7.39C21.52 7.56 21.88 7.91 21.88 8.44C21.88 9.10 21.31 9.56 20.37 9.56C19.42 9.56 18.91 9.00 18.82 8.46L17.99 8.46C18.10 9.70 19.24 10.36 20.37 10.36ZM27.69 3.54C26.88 3.54 25.82 3.92 25.42 4.86L25.42 0L24.53 0L24.53 10.22L25.42 10.22L25.42 6.59C25.45 5.01 26.56 4.42 27.61 4.42C28.66 4.42 29.46 5.19 29.46 6.45L29.46 10.22L30.35 10.22L30.35 6.41C30.35 4.61 29.27 3.54 27.69 3.54Z"></path></g><!----><!----></svg>