<?xml version="1.0" encoding="UTF-8" standalone="no"?>
<svg
   xmlns:dc="http://purl.org/dc/elements/1.1/"
   xmlns:cc="http://creativecommons.org/ns#"
   xmlns:rdf="http://www.w3.org/1999/02/22-rdf-syntax-ns#"
   xmlns:svg="http://www.w3.org/2000/svg"
   xmlns="http://www.w3.org/2000/svg"
   viewBox="0 0 736.90668 259.65332"
   height="259.65332"
   width="736.90668"
   xml:space="preserve"
   id="svg2"
   version="1.1"><metadata
     id="metadata8"><rdf:RDF><cc:Work
         rdf:about=""><dc:format>image/svg+xml</dc:format><dc:type
           rdf:resource="http://purl.org/dc/dcmitype/StillImage" /></cc:Work></rdf:RDF></metadata><defs
     id="defs6" /><g
     transform="matrix(1.3333333,0,0,-1.3333333,0,259.65333)"
     id="g10"><g
       transform="scale(0.1)"
       id="g12"><path
         id="path14"
         style="fill:#211c1d;fill-opacity:1;fill-rule:evenodd;stroke:none"
         d="m 505.168,782.379 c 0,0 0.453,71.93 69.234,71.93 68.786,0 75.094,-68.25 87.692,-118.661 L 829.879,23.5195 H 1376.93 L 1126.5,959.438 868.047,1019.48 1084.73,1121.3 1277.81,1924.09 H 789.215 C 765.543,1831.61 631.016,1306 623.082,1276.64 c -8.703,-32.2 -16.117,-82.6 -66.644,-82.6 -50.536,0 -51.27,51.27 -51.27,51.27 v 678.78 H 0 V 23.5195 H 505.168 V 782.379" /><path
         id="path16"
         style="fill:#211c1d;fill-opacity:1;fill-rule:nonzero;stroke:none"
         d="m 2172.75,519.539 c 0,-59.117 -47.93,-107.039 -107.04,-107.039 -59.11,0 -107.04,47.922 -107.04,107.039 v 880.671 c 0,59.11 47.93,107.04 107.04,107.04 59.11,0 107.04,-47.93 107.04,-107.04 z m 81.84,1427.901 h -377.76 c -228.39,0 -413.53,-185.14 -413.53,-413.53 V 413.551 C 1463.3,185.148 1648.44,0 1876.83,0 h 377.76 c 228.39,0 413.54,185.148 413.54,413.551 V 1533.91 c 0,228.39 -185.15,413.53 -413.54,413.53" /><path
         id="path18"
         style="fill:#211c1d;fill-opacity:1;fill-rule:nonzero;stroke:none"
         d="m 3560.2,1314.98 c 0,-48.96 -39.69,-88.65 -88.66,-88.65 -48.96,0 -88.65,39.69 -88.65,88.65 v 171.48 c 0,48.96 39.69,88.65 88.65,88.65 48.97,0 88.66,-39.69 88.66,-88.65 z m 443.28,-355.542 -264.33,69.022 -0.02,0.02 c 198.74,31.35 292.8,147 292.8,297.27 v 308.86 c 0,159.87 -129.6,289.48 -289.47,289.48 H 2876.97 V 23.5195 h 505.17 V 782.379 c 0,0 0.46,71.93 69.25,71.93 68.78,0 75.08,-68.25 87.68,-118.661 L 3706.86,23.5195 H 4253.9 L 4003.48,959.438" /><path
         id="path20"
         style="fill:#211c1d;fill-opacity:1;fill-rule:nonzero;stroke:none"
         d="M 5043.83,1297.53 V 520.578 c 0,-58.758 -47.64,-106.387 -106.39,-106.387 -58.76,0 -106.39,47.629 -106.39,106.387 V 1405.6 c 0,58.76 47.63,106.38 106.39,106.38 h 589.36 v 412.11 h -784.77 c -228.39,0 -413.53,-185.14 -413.53,-413.54 V 437.039 c 0,-228.379 185.14,-413.5195 413.53,-413.5195 H 5526.8 V 1297.53 h -482.97" /></g></g></svg>