<?xml version="1.0" encoding="UTF-8" standalone="no"?>
<svg
   xmlns:dc="http://purl.org/dc/elements/1.1/"
   xmlns:cc="http://creativecommons.org/ns#"
   xmlns:rdf="http://www.w3.org/1999/02/22-rdf-syntax-ns#"
   xmlns:svg="http://www.w3.org/2000/svg"
   xmlns="http://www.w3.org/2000/svg"
   viewBox="0 0 816 1056"
   height="1056"
   width="816"
   xml:space="preserve"
   id="svg2"
   version="1.1"><metadata
     id="metadata8"><rdf:RDF><cc:Work
         rdf:about=""><dc:format>image/svg+xml</dc:format><dc:type
           rdf:resource="http://purl.org/dc/dcmitype/StillImage" /></cc:Work></rdf:RDF></metadata><defs
     id="defs6" /><g
     transform="matrix(1.3333333,0,0,-1.3333333,0,1056)"
     id="g10"><g
       transform="scale(0.1)"
       id="g12"><path
         id="path14"
         style="fill:#000000;fill-opacity:1;fill-rule:nonzero;stroke:none"
         d="m 2783.64,4295.16 c 4.25,-6.72 11.63,-11.73 18.95,-14.8 -10.74,-32.71 -19.63,-59.76 -30.23,-92.04 -18.93,-17.43 -71.31,-21.31 -59.61,13.45 8.37,26.59 31.96,97.77 38.3,116.59 10.86,33.03 -15.96,38.13 -39.63,32.05 -27.02,-6.95 -76.54,-28.28 -77.92,-46.99 -0.8,-10.96 12.71,-19.19 24.46,-23.12 -3.05,-9.3 -7.41,-22.58 -19.94,-60.23 -15.98,-49.33 -23.49,-106.01 45.85,-106.22 27.09,-0.09 57.72,10.03 78.58,23.04 -6.69,-20.07 9.23,-22.93 24.19,-23.04 17.28,-0.13 42.4,6.3 62.07,17.81 16.33,9.55 28.9,22.61 30.08,38.33 1.14,13.98 -22.59,11.97 -24.66,21.94 3.5,10.66 36.27,109.87 42.05,126.43 5.64,18.75 2.2,34.01 -17.65,34.01 -26.82,0 -113.04,-29.37 -94.89,-57.21" /><path
         id="path16"
         style="fill:#000000;fill-opacity:1;fill-rule:nonzero;stroke:none"
         d="m 3022.28,4130.87 c 8.47,-12.59 23.45,-16.84 41.19,-17.02 31.98,-0.33 61.39,16.76 80.12,36.01 19.77,20.32 28.84,41.91 20.19,44.47 -9.69,2.13 -15.05,1.07 -27.51,-2.47 -10.52,8.44 -9.14,16.7 2.8,53.56 10.32,30.03 60.58,186.53 65.48,199.06 13.91,37.47 10.78,51.24 -7.77,55.97 -31.46,8.02 -87.06,-10.48 -104.64,-39.31 -7.63,-12.51 -2.67,-20.23 10.57,-22.44 7.35,-1.23 13.74,-0.63 12.3,-7.55 -2.06,-9.96 -31.11,-96.2 -31.11,-96.2 -27.15,13.64 -55.11,16.6 -80.93,11.3 -56.74,-11.65 -89.65,-54.85 -101.86,-100.54 -15.1,-56.45 -0.23,-130.41 69.25,-131.86 17.59,-0.37 38.77,3.98 51.92,17.02 z m 40.35,141.95 c -6.84,-24.54 -14.23,-47.38 -23.85,-74.04 -4.41,-10.62 -21.01,-18.82 -34.82,-17.44 -26.43,2.64 -25.85,33.22 -13.99,61.26 7.68,18.17 20.11,35.28 32.99,43.03 21.48,12.92 42.74,7.79 39.67,-12.81" /><path
         id="path18"
         style="fill:#000000;fill-opacity:1;fill-rule:nonzero;stroke:none"
         d="m 3646.81,4366.16 c 28.94,-2.1 50.69,16.44 54.98,48.71 4.02,30.37 -18.4,44.11 -44.24,44.24 -26.25,-0.31 -47.88,-20.63 -49.76,-46.73 -1.12,-26.63 12.26,-44.31 39.02,-46.22" /><path
         id="path20"
         style="fill:#000000;fill-opacity:1;fill-rule:nonzero;stroke:none"
         d="m 3884.35,4333.5 c -16.87,13.46 -37.07,19.39 -57.83,18.87 -57.47,-1.45 -102.78,-43.89 -124.46,-93.12 -21.77,-49.69 -19.72,-106.44 17.74,-134.73 23.11,-17.45 52.94,-20.04 80.77,-16.85 0,0 2.21,-22.83 -61.85,-22.56 h -201.51 l -25.42,-77.39 h 201.51 c 81.95,0 141.53,-9.27 170.03,77.39 l 74.21,225.66 c 15.45,47.27 -45.81,53.05 -73.19,22.73 z m -24.31,-74.03 -24.89,-75.72 c -9.16,-17.84 -34.13,-17.04 -47.4,-0.69 -25.6,31.55 8.11,110.46 55.33,103.55 12.88,-1.88 21.37,-11.43 16.96,-27.14" /><path
         id="path22"
         style="fill:#000000;fill-opacity:1;fill-rule:nonzero;stroke:none"
         d="m 2991.43,4084.96 -337.45,0.49 c -28.35,1.07 -55.98,12.75 -79.6,28.48 -10.83,6.68 -30.26,21.05 -51.38,35.9 42.7,58.86 103.68,223.45 127.23,290.15 15.06,42.66 45.33,82.77 92.97,87.99 22.94,2.51 46.14,-3.9 52.76,-27.72 2.55,-9.17 0.81,-18.89 -5.54,-26.67 -19.9,17.59 -53.74,17.05 -74.85,1.55 -36.83,-27.07 -20.15,-81.45 23.37,-90.65 29.77,-6.29 70.78,4.23 92.45,35.19 53.45,76.33 18.82,172.33 -84.46,170.72 -97.07,-1.51 -146.21,-63.73 -185.63,-142.92 -24.07,-48.33 -40.39,-96.83 -57.96,-135.17 -16.11,-35.17 -35.48,-80.94 -56.59,-116.47 -33.52,13.67 -90.4,29.89 -152.57,29.1 -47.35,-0.61 -131.24,-14.39 -134.1,-75.42 -3.38,-72.19 102.7,-84.54 154.74,-82.23 58.45,2.59 110.02,17.7 143.12,34.18 26.29,-24.25 49.57,-45.65 80.7,-62.33 33,-17.69 54.41,-30.25 154.02,-31.41 h 273.38 z m -591.11,61.49 c -1.81,-0.97 -11.86,-5.95 -27.31,-11.53 -31.17,-11.24 -85.66,-12.91 -115.41,1.93 -17.51,8.74 -15.67,20.78 6.9,27.48 20.03,5.94 47.45,7.78 72.38,3.18 20.66,-3.81 43.75,-9.66 63.44,-21.06" /><path
         id="path24"
         style="fill:#000000;fill-opacity:1;fill-rule:nonzero;stroke:none"
         d="m 3326.71,4295.16 c 4.24,-6.72 11.62,-11.73 18.95,-14.8 -10.75,-32.71 -19.63,-59.76 -30.24,-92.04 -18.92,-17.43 -63.01,-21.31 -51.31,13.45 8.37,26.59 31.97,97.77 38.31,116.59 10.85,33.03 -15.96,38.13 -39.64,32.05 -27.02,-6.95 -76.54,-28.28 -77.91,-46.99 -0.81,-10.96 12.71,-19.19 24.46,-23.12 -3.06,-9.3 -7.42,-22.58 -19.95,-60.23 -15.98,-49.33 -23.48,-106.01 45.85,-106.22 27.09,-0.09 77.65,13.19 98.5,26.2 18.28,-15.75 52.13,-26.2 77.33,-26.2 97.19,0 143.57,85.27 147.03,171.47 2.68,66.45 -41.27,70.58 -57.92,67.05 -35.74,-6.12 -46.23,-61.57 3.17,-70 -1.26,-114.3 -116.87,-134.23 -97.85,-65.29 3.5,10.66 27.97,84.72 33.75,101.28 5.64,18.75 2.21,34.01 -17.65,34.01 -26.82,0 -113.04,-29.37 -94.88,-57.21" /><path
         id="path26"
         style="fill:#000000;fill-opacity:1;fill-rule:nonzero;stroke:none"
         d="m 3575.83,4295.16 c 4.24,-6.72 17.47,-13.94 24.8,-17.01 -17.8,-52.05 -26.2,-79.81 -42.5,-129.1 -7.73,-23.2 5.73,-35.09 20.69,-35.2 17.28,-0.13 42.4,6.3 62.07,17.81 16.33,9.55 28.9,22.61 30.08,38.33 1.14,13.98 -22.59,11.97 -24.66,21.94 3.5,10.66 36.27,109.87 42.05,126.43 5.64,18.75 2.2,34.01 -17.66,34.01 -26.81,0 -113.03,-29.37 -94.87,-57.21" /><path
         id="path28"
         style="fill:#000000;fill-opacity:1;fill-rule:nonzero;stroke:none"
         d="m 2784.45,3617.43 c 4.25,-6.73 10.47,-11.99 17.81,-15.06 -3.43,-17.24 -8.06,-34.22 -13.86,-50.82 -4.79,-14.42 -10.81,-28.39 -18.01,-41.77 -9.5,-14.93 -66.21,-20.62 -54.5,14.19 7.37,21.96 23.44,80.34 28.72,100.42 5.29,20.09 11.79,54.77 -18.68,49.95 -30.46,-4.82 -54.63,-12.72 -71.5,-25.64 -16.87,-12.92 -23.97,-24.64 -13.45,-32.67 10.5,-8.04 15.73,-13.06 15.73,-13.06 0,-10.98 -5.35,-24.9 -18.08,-60.72 -12.72,-35.82 -21.76,-75.05 2.82,-91.72 24.57,-16.67 73.64,-12.26 92.32,-4.42 18.68,7.83 29.46,12.85 29.46,12.85 0,0 -5.56,-16.67 7.16,-20.96 12.72,-4.28 53.56,-3.83 77.66,14.78 24.57,16.77 31.2,33.1 31.67,39.32 1.14,14 -16.74,12.05 -18.81,22.03 -2.08,9.98 29.86,109.6 36.22,126.54 6.36,16.93 2.21,33.87 -17.68,31.93 -13.72,1.28 -46.34,-3.27 -69.36,-18.68 -22.09,-14.02 -33.67,-24.17 -25.64,-36.49" /><path
         id="path30"
         style="fill:#000000;fill-opacity:1;fill-rule:nonzero;stroke:none"
         d="m 2947.81,3441.29 c 54.03,-9.71 75.58,11.64 75.58,11.64 0,0 11.46,-17 27.19,-17.06 15.74,-0.07 68.22,-2.28 90.38,29.52 22.17,31.8 34.29,48.07 24.11,51.08 -9.7,2.14 -15.07,1.08 -27.54,-2.47 -10.53,8.45 -6.05,16.72 2.81,53.63 10.33,30.06 59.83,187.25 66.53,199.64 20.72,39.65 7.45,56.32 -13.51,56.46 -20.95,0.13 -46.38,0 -72.69,-15.67 -26.31,-15.67 -37.96,-35.38 -26.45,-43.42 9.91,-6.69 24.1,-1.07 22.03,-11.04 -2.07,-9.97 -31.16,-96.32 -31.16,-96.32 0,0 -48.66,24.44 -90.7,9.71 -45.89,-15.67 -81.9,-53.99 -93.91,-100.97 -14.93,-51.69 7.43,-117.64 47.33,-124.73 z m 62.46,158.62 c 24.23,23.84 56.74,16.71 53.53,-4.85 -4.85,-26.15 -11.98,-51.81 -21.29,-76.72 -7.44,-17.88 -51.9,-26.3 -57.13,3.55 -4.35,29.49 5.42,57.57 24.89,78.02" /><path
         id="path32"
         style="fill:#000000;fill-opacity:1;fill-rule:nonzero;stroke:none"
         d="m 3188.75,3619.32 c -2.14,-15.93 20.96,-17.16 20.09,-21.18 -3.05,-15.48 -6.96,-29.66 -11.71,-44.69 -6.5,-17.88 -32.17,-73.13 -12.09,-91.08 20.09,-17.94 39.81,-33.56 82.86,-23.78 24.27,5.11 45.12,12.9 67.66,23.23 12.18,-6.85 18.79,-15.44 51.32,-19.15 25.41,-1.85 78.48,-4.94 118.04,25.99 23.99,18.75 48.91,57.92 54.35,120.45 7.05,81.64 -45.48,91.34 -72.75,73.14 -14.84,-9.92 -21.72,-31.73 -9.1,-46.89 7.28,-9 16.15,-15.33 27.65,-16.63 -0.01,-21.32 2.51,-37.12 -6.19,-56.07 -9.84,-21.43 -34.31,-44.22 -63.42,-44.14 -25.17,0 -34,10.45 -26.23,56.25 7.77,45.79 11.9,75.3 14.51,88.37 5.36,26.77 -0.35,36.66 -27.46,34.45 -48.92,-1.16 -85.44,-36.67 -85.5,-57.82 -0.07,-15.06 20.88,-20.09 26.17,-19.01 -0.25,-16.1 -3.87,-25.63 -6.02,-40.56 -4.35,-18.24 -10.18,-59.03 -26.77,-61.81 -17.05,-0.23 -36.85,-1.66 -34.37,22.38 2.47,24.03 17.07,71 28.72,101.94 12.2,32.04 12.23,53 -24.46,51.4 -36.68,-1.61 -82.75,-35.9 -85.3,-54.79" /><path
         id="path34"
         style="fill:#000000;fill-opacity:1;fill-rule:nonzero;stroke:none"
         d="m 3579.02,3434 c 33.22,2.02 98.04,23.73 98.18,48.82 0,17.06 -25.49,13.49 -24.4,22.18 1.09,8.7 28.07,119.02 33.57,136.49 8.63,26.97 -6.25,30.14 -40.36,25.22 -34.11,-4.92 -70.39,-17.74 -71.55,-43.02 -1.02,-22.59 19.17,-18.21 16.92,-26.17 -2.24,-7.96 -27.18,-99.32 -32.48,-117.4 -5.3,-18.07 -10.8,-48.01 20.12,-46.12" /><path
         id="path36"
         style="fill:#000000;fill-opacity:1;fill-rule:nonzero;stroke:none"
         d="m 3648.45,3686.89 c 29.99,-2.18 52.54,17.04 56.98,50.49 4.16,31.48 -19.07,45.72 -45.85,45.85 -27.21,-0.31 -49.63,-21.37 -51.59,-48.44 -1.15,-27.59 12.71,-45.92 40.46,-47.9" /><path
         id="path38"
         style="fill:#000000;fill-opacity:1;fill-rule:nonzero;stroke:none"
         d="m 3890.18,3653.95 c 0,0 -42.64,23.78 -77.46,17.09 -35.92,-6.7 -101.9,-33.86 -118.04,-120.49 -9.83,-52.79 -1,-85.3 27.57,-104.3 17.56,-11.68 43.93,-20.51 78.5,-16.55 0,0 2.21,-22.86 -61.93,-22.59 l -198.64,0.6 -16.13,-77.42 189.51,-0.68 c 65.08,0 130.12,-2.51 157.63,42.28 22.02,35.89 58.31,150.2 72.24,203.97 5.84,22.53 13.09,42 15.75,57.2 7.99,45.71 -44.8,44.84 -69,20.89 z m -32.44,-72.25 c -6.49,-25.86 -15.02,-51.15 -25.51,-75.66 -12.16,-23.68 -48.74,-11.33 -49.75,16.59 -1.35,23.05 5.88,51.9 22.36,70.7 33.64,34.65 58.57,8.54 52.9,-11.63" /><path
         id="path40"
         style="fill:#000000;fill-opacity:1;fill-rule:nonzero;stroke:none"
         d="m 2982.86,3409.9 -327.27,0.49 c -28.4,1.07 -57.02,9.82 -80.68,25.58 -10.84,6.69 -29.59,21.76 -50.74,36.63 42.76,58.94 103.11,223.05 126.69,289.85 17.21,48.74 52.85,85.04 89.94,87.85 15.43,1.18 26.71,0.56 36.04,-4.3 21.44,-11.2 27.04,-34.42 14.39,-49.92 -21.46,21.05 -91.95,16.31 -93.15,-34.63 -1.2,-50.96 48.92,-57.78 70.01,-57.25 43.19,0.94 69.46,36.17 81.82,75.44 10.28,32.68 8.3,68.18 -8.48,91.98 -28.05,39.77 -99.93,50.1 -155.49,31.82 -30.33,-9.98 -56.56,-30.08 -77.6,-57.79 -53.56,-69.42 -77.58,-152.2 -104.56,-211.05 -16.13,-35.21 -34.81,-81.41 -57.38,-116.63 -44.16,19.56 -132.51,28.67 -180.35,24.33 -63.06,-5.83 -106.05,-27.89 -106.05,-69.8 0,-54.84 79.79,-86.83 142.04,-85.16 53.8,2.07 107.07,14.34 156.28,36.15 26.33,-24.29 49.64,-45.72 80.81,-62.42 33.04,-17.71 55.44,-27.34 155.19,-28.51 h 272.67 z m -657.44,38.39 c -100.43,2.41 -111.67,42.97 -5.09,43.11 27.94,-0.75 54.79,-8.04 79.76,-22.42 -0.02,0.07 -37.69,-21.62 -74.67,-20.69" /><path
         id="path42"
         style="fill:#000000;fill-opacity:1;fill-rule:evenodd;stroke:none"
         d="m 3054.54,4085.1 h 46.25 l -15.72,-47.7 c -1.46,-4.43 -0.8,-7.57 2.02,-9.44 2.79,-1.88 8.19,-2.81 16.2,-2.81 7.8,0 13.71,0.91 17.66,2.76 3.98,1.83 6.69,5 8.17,9.49 l 15.72,47.7 h 46.26 l -16.37,-49.65 c -3.2,-9.71 -11.44,-17.1 -24.78,-22.21 -13.29,-5.11 -31.03,-7.68 -53.12,-7.68 -22.23,0 -38.34,2.57 -48.39,7.69 -10.02,5.14 -13.46,12.52 -10.28,22.2 l 16.38,49.65" /><path
         id="path44"
         style="fill:#000000;fill-opacity:1;fill-rule:evenodd;stroke:none"
         d="m 3186.37,4031.82 h 45.06 c 0.31,-2.8 1.88,-4.8 4.75,-6.02 2.83,-1.23 7.5,-1.84 13.95,-1.84 5.37,0 9.81,0.51 13.2,1.49 3.44,1.01 5.42,2.37 6,4.13 0.92,2.8 -4.8,5.06 -17.17,6.82 -2.5,0.34 -4.41,0.61 -5.72,0.78 -10.12,1.48 -18.12,2.82 -24.03,4.02 -5.88,1.21 -10.08,2.35 -12.61,3.39 -4.83,2.14 -8.16,4.7 -9.95,7.68 -1.78,2.98 -2.02,6.39 -0.76,10.21 2.53,7.68 9.88,13.7 22.08,18.1 12.19,4.37 27.69,6.56 46.52,6.56 18.52,0 32.38,-2.1 41.61,-6.29 9.23,-4.2 13.25,-10.21 12.04,-18.03 h -43.86 c 0.06,2.28 -1.28,3.98 -3.92,5.09 -2.67,1.13 -6.82,1.69 -12.42,1.69 -4.94,0 -8.76,-0.43 -11.48,-1.31 -2.7,-0.88 -4.33,-2.21 -4.92,-4 -0.85,-2.55 4.75,-4.7 16.84,-6.4 1.08,-0.18 1.87,-0.31 2.41,-0.38 1.76,-0.23 4.4,-0.61 7.98,-1.1 16.01,-2.27 26.27,-4.34 30.83,-6.2 5.62,-2.28 9.44,-4.87 11.42,-7.77 1.98,-2.9 2.31,-6.35 1.01,-10.3 -2.82,-8.55 -10.56,-15.12 -23.18,-19.69 -12.62,-4.59 -29.3,-6.89 -50.06,-6.89 -19.12,0 -33.52,2.3 -43.18,6.89 -9.67,4.57 -13.82,11.03 -12.44,19.37" /><path
         id="path46"
         style="fill:#000000;fill-opacity:1;fill-rule:evenodd;stroke:none"
         d="m 3382.57,4034.19 h 29.04 l -5.52,26.8 z m -68.2,-26.48 76.18,77.39 h 46.85 l 25.15,-77.39 h -45.86 l -2.03,10.23 h -45.86 l -8.94,-10.23 h -45.49" /></g></g></svg>