<?xml version="1.0" encoding="UTF-8" standalone="no"?>
<svg
   xmlns:dc="http://purl.org/dc/elements/1.1/"
   xmlns:cc="http://creativecommons.org/ns#"
   xmlns:rdf="http://www.w3.org/1999/02/22-rdf-syntax-ns#"
   xmlns:svg="http://www.w3.org/2000/svg"
   xmlns="http://www.w3.org/2000/svg"
   viewBox="0 0 258.66666 258.66666"
   height="258.66666"
   width="258.66666"
   xml:space="preserve"
   id="svg2"
   version="1.1"><metadata
     id="metadata8"><rdf:RDF><cc:Work
         rdf:about=""><dc:format>image/svg+xml</dc:format><dc:type
           rdf:resource="http://purl.org/dc/dcmitype/StillImage" /></cc:Work></rdf:RDF></metadata><defs
     id="defs6" /><g
     transform="matrix(1.3333333,0,0,-1.3333333,0,258.66667)"
     id="g10"><g
       transform="scale(0.1)"
       id="g12"><path
         id="path14"
         style="fill:#231f20;fill-opacity:1;fill-rule:evenodd;stroke:none"
         d="M 2.59766,1933.23 H 1930.16 V 5.66797 H 2.59766 V 1933.23" /><path
         id="path16"
         style="fill:#ffffff;fill-opacity:1;fill-rule:evenodd;stroke:none"
         d="m 616.125,827.086 c 53.016,10.121 84.824,63.617 93.496,115.187 1.926,13.012 -14.457,19.278 -26.984,13.493 -11.086,-5.301 -15.91,-9.157 -30.367,-20.723 -26.989,-21.688 -43.856,-50.605 -50.602,-85.305 -2.41,-11.566 6.746,-24.097 14.457,-22.652 z m 371.34,-9.156 c 13.735,-3.856 24.825,7.711 28.195,18.316 6.75,22.649 2.89,47.711 -5.78,68.434 -3.86,-3.371 -33.259,-38.555 -42.896,-51.567 -5.785,-7.715 5.301,-30.847 20.481,-35.183 z M 1327,835.762 c 3.37,-12.051 19.28,-10.121 27.95,-6.266 43.37,19.277 73.74,69.402 76.15,116.152 0.48,9.637 -13.01,14.454 -23.62,10.602 -25.54,-9.641 -42.89,-27.953 -58.8,-51.086 -14.93,-21.207 -27.95,-44.34 -21.68,-69.402 z m 396.64,113.258 c 0.48,-1.446 43.38,32.773 69.88,66.02 26.02,33.26 38.55,68.92 38.55,68.92 0,0 -29.39,-21.69 -56.86,-54.94 -32.77,-40.481 -51.57,-80 -51.57,-80 z m -863.648,58.8 0.961,1.44 c 11.57,15.91 15.906,38.08 0.485,45.79 -1.93,0.96 -5.301,-5.3 -6.27,-9.64 -3.855,-13.02 -2.891,-26.03 4.824,-37.59 z m -23.621,-36.433 c -14.937,27.472 -22.164,59.083 -9.633,87.993 12.043,28.44 55.422,39.04 71.325,7.23 17.835,-35.66 -7.711,-66.5 -15.418,-80.965 -2.411,-4.336 20.238,1.929 28.914,1.929 17.351,0.965 27.472,-16.386 19.277,-29.879 -26.988,-43.379 -71.809,-74.222 -77.594,-126.269 -1.445,-13.016 31.324,-6.27 70.367,26.504 0.965,0.965 70.36,85.789 123.381,150.85 12.05,14.46 52.53,-0.48 39.51,-19.757 -11.56,-16.871 -23.12,-29.882 -30.36,-40.003 -10.12,-14.942 15.91,-25.063 13.5,-81.934 19.75,15.426 51.56,36.148 52.53,37.594 33.25,69.402 68.44,149.89 101.21,221.21 8.19,17.84 52.53,8.68 42.41,-13.98 -20.72,-47.23 -42.41,-97.83 -61.69,-144.578 -0.96,-1.93 35.19,21.207 38.56,22.652 25.06,8.196 35.66,-13.98 39.52,-29.882 8.67,-37.11 -30.85,-87.231 -49.64,-122.895 -4.83,-8.676 6.26,-4.336 10.6,-1.445 13.49,8.191 35.66,28.914 36.15,30.843 32.28,87.235 138.8,156.155 179.28,105.063 2.89,4.336 7.23,11.086 7.71,11.57 9.16,9.157 46.27,6.266 40.49,-11.086 0,-0.964 -38.56,-76.629 -58.32,-115.183 -4.34,-8.676 0.48,-32.778 13.01,-23.617 19.76,13.976 48.68,43.859 49.64,47.23 22.65,64.102 97.84,194.228 198.08,247.718 16.87,8.68 48.68,-1.92 38.56,-29.39 -34.91,-92.29 -75.99,-132.867 -137.82,-178.691 -1.14,-0.817 -1.85,-1.25 -2.63,-1.774 -13.02,-9.109 -50.97,-31.476 -52.81,-39.308 0,-1.446 -8.2,-26.989 -3.86,-39.52 6.27,-19.277 25.54,-16.871 39.52,-6.746 52.05,37.59 71.81,95.906 105.07,148.922 26.98,42.887 56.38,79.517 99.27,113.737 19.76,15.9 39.52,37.11 65.55,33.74 11.57,-1.45 17.83,-13.5 16.38,-21.21 -19.75,-80.96 -68.43,-134.462 -118.55,-175.427 -23.14,-18.797 -46.27,-35.18 -66.99,-50.121 -5.31,-3.856 -18.32,-76.149 34.7,-51.086 25.54,12.047 51.57,49.64 66.99,68.437 7.71,9.637 21.21,-3.375 14.94,-16.39 -15.91,-31.805 -37.11,-58.317 -66.03,-80.485 -21.2,-16.867 -47.71,-25.062 -72.77,-14.941 -19.28,7.711 -26.03,27.476 -31.33,44.34 -18.79,-21.688 -44.82,-40 -72.29,-47.711 -42.89,-12.051 -60.24,18.797 -60.72,43.855 -26.99,-21.687 -78.56,-76.144 -104.59,-18.793 -29.4,-16.39 -82.41,-51.57 -118.08,7.227 -24.58,-16.383 -52.53,-45.305 -80.48,-27.469 -18.32,11.567 -26.51,32.289 -17.83,51.086 15.42,33.25 45.3,87.231 47.23,90.602 3.85,6.75 -6.27,10.609 -12.05,5.785 -24.58,-19.758 -44.34,-35.66 -45.3,-38.071 -12.53,-27.476 -35.19,-76.632 -47.71,-103.14 -7.24,-15.903 -37.12,-15.422 -44.82,-3.856 -11.09,16.387 4.33,31.809 11.07,46.75 -33.73,-22.648 -57.35,-47.711 -93.491,-53.976 -28.434,-5.305 -59.278,6.742 -70.364,33.734 -33.738,-17.828 -71.808,-51.082 -107.476,-24.097 -30.844,23.132 -14.942,80.968 56.39,149.886 1.368,1.395 1.371,2.684 0,3.856 l -11.086,4.34 C 839.746,916.727 782.879,829.98 747.695,806.363 709.621,781.301 684.563,774.555 667.211,805.883 628.656,778.406 577.57,773.59 556.844,816.965 l -0.477,-0.481 c -27.957,-22.171 -49.644,-39.039 -95.429,-30.363 -22.168,4.336 -33.739,25.059 -36.149,45.785 -3.371,33.254 2.41,66.992 6.75,99.762 -28.434,-48.676 -55.906,-103.137 -95.906,-144.582 -7.231,-6.75 -30.844,-1.93 -28.434,11.086 9.637,54.457 39.516,130.125 36.145,180.726 C 302.859,891.184 242.133,751.902 121.168,792.387 36.3438,820.82 56.1016,974.563 175.145,927.332 c 13.972,-5.785 5.785,-31.324 -6.747,-26.504 -57.835,23.129 -70.8472,-72.297 -12.05,-76.152 37.109,-2.41 62.652,21.207 74.699,40 78.078,119.043 101.691,233.744 193.262,371.584 12.531,19.28 44.82,-0.48 34.218,-21.21 -14.941,-28.91 -27.949,-61.2 -40.484,-101.69 -13.973,-45.78 -21.688,-88.19 -21.203,-134.942 63.133,93.492 124.34,185.062 212.055,260.732 3.855,3.37 12.05,2.41 17.351,0.48 9.16,-2.89 10.606,-13.97 6.266,-20.24 -92.051,-144.1 -179.766,-291.577 -159.043,-379.292 4.82,-18.797 16.867,-14.942 31.808,-12.532 14.457,2.414 48.676,31.813 51.567,39.039 21.691,57.352 65.547,103.618 125.308,118.559 19.758,5.305 40,0.481 54.942,-13.496 8.191,16.871 31.808,19.281 43.379,6.75 2.406,-2.891 1.925,-10.121 0,-13.977 -21.692,-40.968 -40.489,-77.113 -62.176,-115.668 -1.445,-2.89 1.93,-9.156 6.746,-7.71 31.809,10.121 74.703,76.828 111.328,130.324 z M 1588.7,946.852 c 0.96,-0.723 40.48,26.746 66.98,57.598 21.21,24.57 48.68,77.59 47.23,79.51 -2.41,0.97 -33.25,-27.47 -61.2,-59.28 -21.21,-24.57 -53.01,-77.586 -53.01,-77.828" /></g></g></svg>