<?xml version="1.0" encoding="UTF-8" standalone="no"?>
<svg
   xmlns:dc="http://purl.org/dc/elements/1.1/"
   xmlns:cc="http://creativecommons.org/ns#"
   xmlns:rdf="http://www.w3.org/1999/02/22-rdf-syntax-ns#"
   xmlns:svg="http://www.w3.org/2000/svg"
   xmlns="http://www.w3.org/2000/svg"
   viewBox="0 0 258.66666 258.66666"
   height="258.66666"
   width="258.66666"
   xml:space="preserve"
   id="svg2"
   version="1.1"><metadata
     id="metadata8"><rdf:RDF><cc:Work
         rdf:about=""><dc:format>image/svg+xml</dc:format><dc:type
           rdf:resource="http://purl.org/dc/dcmitype/StillImage" /></cc:Work></rdf:RDF></metadata><defs
     id="defs6" /><g
     transform="matrix(1.3333333,0,0,-1.3333333,0,258.66667)"
     id="g10"><g
       transform="scale(0.1)"
       id="g12"><path
         id="path14"
         style="fill:#ffffff;fill-opacity:1;fill-rule:evenodd;stroke:none"
         d="M 2.59766,1933.23 H 1930.16 V 5.66797 H 2.59766 V 1933.23" /><path
         id="path16"
         style="fill:#231f20;fill-opacity:1;fill-rule:evenodd;stroke:none"
         d="M 679.586,871.207 H 635.652 V 769.305 h 43.934 c 39.664,-0.61 64.07,15.254 64.07,50.648 0,35.391 -24.406,51.254 -64.07,51.254 z m 3.051,-85.426 h -23.188 v 68.34 h 23.188 c 32.953,0.613 37.832,-17.695 37.832,-34.168 0,-15.867 -4.879,-34.172 -37.832,-34.172 z m 168.414,20.746 h 29.289 v -21.359 c -11.594,-1.219 -18.914,-2.441 -29.899,-2.441 -23.796,0 -38.441,14.035 -38.441,37.226 0,23.188 14.645,37.223 38.441,37.223 15.254,0 28.067,-4.274 28.067,-17.09 h 25.019 c -0.609,24.41 -22.578,32.953 -56.746,32.953 -25.019,0 -59.801,-12.203 -59.801,-53.086 0,-40.273 32.954,-53.086 58.579,-53.086 16.476,0 23.187,0.61 29.293,1.219 9.761,0.609 19.523,1.828 28.675,4.269 v 51.258 h -52.476 z m 201.969,64.68 H 949.902 V 851.68 h 40.274 v -82.375 h 23.184 v 82.375 h 39.66 z m 26.86,0 h 32.33 l 50.65,-101.902 h -24.41 l -10.98,21.355 h -63.46 l -9.76,-21.355 h -26.24 z m -7.33,-63.461 h 46.38 l -23.19,43.324 h -0.61 z m 123.26,63.461 h -23.18 V 769.305 H 1255 v 16.476 h -59.19 z m 335.61,-51.867 v 0.613 c 15.87,2.442 26.24,11.594 26.24,24.406 0,20.746 -21.97,26.848 -43.93,26.848 h -54.31 V 769.305 h 23.19 v 40.883 h 32.95 c 9.15,0 14.03,-7.934 15.25,-13.426 1.22,-9.762 2.44,-18.914 4.27,-27.457 h 24.41 c -4.88,5.492 -5.49,18.308 -6.71,24.406 -2.44,14.035 0,21.969 -21.36,25.629 z m -18.92,7.933 h -29.89 v 26.848 h 29.89 c 12.21,0 18.92,-3.66 18.92,-12.812 0,-9.153 -6.71,-14.036 -18.92,-14.036 z m 110.45,45.766 c -42.1,0 -61.02,-22.578 -61.02,-53.086 0,-29.902 18.92,-53.086 61.02,-53.086 42.1,0 61.63,23.184 61.63,53.086 0,30.508 -19.53,53.086 -61.63,53.086 z m 0,-90.312 c -26.85,0 -36,19.527 -36,37.226 0,17.692 9.15,37.223 36,37.223 26.85,0 36.61,-19.531 36.61,-37.223 0,-17.699 -9.76,-37.226 -36.61,-37.226 z m 150.11,32.953 c 0,-17.086 -2.44,-33.563 -29.29,-33.563 -26.85,0 -29.29,16.477 -29.29,33.563 v 55.527 h -23.19 v -64.07 c 0,-26.848 21.36,-41.492 52.48,-41.492 30.51,0 52.48,14.644 52.48,41.492 v 64.07 h -23.19 z m 71.39,55.527 H 1805.4 V 769.305 h 23.19 v 39.054 h 23.8 c 28.67,0.61 44.54,12.813 44.54,31.118 0,26.238 -23.8,31.73 -52.48,31.73 z m -15.86,-45.766 v 28.68 c 19.52,-0.609 45.15,3.664 45.15,-14.644 0,-17.696 -25.63,-13.426 -45.15,-14.036 z M 756.469,769.305 h 23.187 v 101.902 h -23.187 z m 158.043,0 h 23.187 v 101.902 h -23.187 z m 479.618,37.222 h 28.67 v -21.359 c -10.98,-1.219 -18.3,-2.441 -29.28,-2.441 -24.41,0 -39.06,14.035 -39.06,37.226 0,23.188 14.65,37.223 39.06,37.223 14.64,0 27.46,-4.274 27.46,-17.09 h 25.01 c 0,24.41 -22.57,32.953 -56.13,32.953 -25.63,0 -60.41,-12.203 -60.41,-53.086 0,-40.273 33.55,-53.086 58.57,-53.086 17.09,0 23.19,0.61 29.29,1.219 10.38,0.609 19.53,1.828 28.68,4.269 v 51.258 h -51.86 v -17.086" /><path
         id="path18"
         style="fill:#231f20;fill-opacity:1;fill-rule:evenodd;stroke:none"
         d="M 30.9453,1173.25 V 903.551 H 584.395 V 1173.25 H 30.9453" /><path
         id="path20"
         style="fill:#231f20;fill-opacity:1;fill-rule:evenodd;stroke:none"
         d="M 577.684,1167.15 V 910.262 H 37.6563 V 1167.15 H 577.684" /><path
         id="path22"
         style="fill:#231f20;fill-opacity:1;fill-rule:evenodd;stroke:none"
         d="M 30.9453,874.867 V 766.254 H 584.395 V 874.867 H 30.9453" /><path
         id="path24"
         style="fill:#231f20;fill-opacity:1;fill-rule:evenodd;stroke:none"
         d="M 577.684,868.77 V 772.965 H 37.6563 V 868.77 H 577.684" /><path
         id="path26"
         style="fill:#231f20;fill-opacity:1;fill-rule:evenodd;stroke:none"
         d="m 688.129,1019.48 h 87.867 c 23.797,-0.6 39.055,-28.066 40.887,-42.71 3.66,-23.797 6.711,-47.594 12.812,-71.391 h 54.309 c -13.426,14.644 -15.867,46.375 -19.527,63.461 -5.493,36 -1.219,55.52 -36,62.85 v 0.61 c 40.878,6.71 48.812,35.39 48.812,70.17 0,54.31 -54.918,68.95 -112.277,69.56 H 635.652 V 905.379 h 52.477 z m 0,113.5 h 88.476 c 31.735,-0.61 50.04,-15.86 50.04,-39.66 0,-23.19 -18.305,-36 -50.04,-36.61 H 688.129 Z M 1380.7,929.785 c 0,-7.32 0.61,-15.863 2.44,-24.406 h 43.32 c -1.21,5.492 -3.04,10.984 -3.04,20.137 V 1026.2 c 0,56.14 -46.99,69.56 -93.97,69.56 -25.02,0 -49.43,-3.05 -68.35,-11.6 -18.3,-8.53 -31.12,-23.18 -31.12,-46.37 h 48.82 c -1.22,8.54 15.25,26.85 48.2,26.85 25.02,0 48.82,-10.37 48.82,-23.19 v -15.86 -1.23 c -28.07,0.62 -79.32,-0.61 -107.4,-10.37 -42.1,-14.033 -49.42,-45.15 -49.42,-57.963 0,-36.613 32.34,-56.14 75.66,-56.14 31.73,0 70.18,8.543 86.04,29.898 z m -4.88,56.75 c -1.22,-37.832 -27.46,-51.254 -65.9,-51.254 -19.53,0 -39.05,2.442 -37.83,28.067 0,18.914 36.61,35.39 103.73,28.675 z m 123.87,29.895 c 1.22,26.85 45.77,46.38 67.73,46.38 34.17,0 41.49,-26.24 42.1,-46.38 V 905.379 h 43.94 v 120.211 c 0,6.1 -0.61,18.3 -4.27,29.9 -8.54,26.85 -51.87,44.54 -75.06,44.54 -35.39,0 -59.79,-15.25 -73.83,-32.34 l -1.22,1.22 v 28.07 h -43.94 V 905.379 h 44.55 z m -300.22,155.6 H 1147 V 905.379 h 52.47 z m -190.38,-76.27 c 71.39,-3.05 121.43,-42.1 121.43,-98.24 0,-57.969 -45.16,-97.633 -121.43,-97.633 -75.051,0 -125.699,40.273 -120.207,97.633 8.547,97.02 118.987,98.24 120.207,98.24 z m 0,-164.752 c 42.71,0 70.17,37.222 70.17,66.512 0,29.28 -25.01,65.29 -70.17,65.29 v 0.61 -0.61 c -43.93,0 -68.949,-36.01 -68.949,-65.29 0,-29.29 26.847,-66.512 68.949,-66.512 z m 769.46,-31.121 c 30.51,0 59.8,9.761 75.06,31.73 0,-8.543 4.27,-21.355 6.1,-26.238 h 42.1 c -1.22,12.203 -2.44,25.016 -2.44,37.223 v 229.428 h -44.54 v -103.12 c -13.43,15.87 -43.33,27.46 -67.12,27.46 -72.01,0 -108.62,-48.82 -108.62,-98.85 0,-46.985 31.73,-97.633 99.46,-97.633 z m 10.99,164.753 c 37.83,0 65.29,-41.5 65.29,-67.12 0,-25.629 -25.02,-63.461 -62.24,-63.461 -44.55,0 -68.96,35.39 -68.96,63.461 0,28.68 21.36,67.12 65.91,67.12" /></g></g></svg>