<?xml version="1.0" encoding="UTF-8" standalone="no"?>
<svg
   xmlns:dc="http://purl.org/dc/elements/1.1/"
   xmlns:cc="http://creativecommons.org/ns#"
   xmlns:rdf="http://www.w3.org/1999/02/22-rdf-syntax-ns#"
   xmlns:svg="http://www.w3.org/2000/svg"
   xmlns="http://www.w3.org/2000/svg"
   viewBox="0 0 258.66666 258.66666"
   height="258.66666"
   width="258.66666"
   xml:space="preserve"
   id="svg2"
   version="1.1"><metadata
     id="metadata8"><rdf:RDF><cc:Work
         rdf:about=""><dc:format>image/svg+xml</dc:format><dc:type
           rdf:resource="http://purl.org/dc/dcmitype/StillImage" /></cc:Work></rdf:RDF></metadata><defs
     id="defs6" /><g
     transform="matrix(1.3333333,0,0,-1.3333333,0,258.66667)"
     id="g10"><g
       transform="scale(0.1)"
       id="g12"><path
         id="path14"
         style="fill:#ffffff;fill-opacity:1;fill-rule:evenodd;stroke:none"
         d="M 6.21875,1933.78 H 1933.78 V 6.21875 H 6.21875 V 1933.78" /><path
         id="path16"
         style="fill:#231f20;fill-opacity:1;fill-rule:evenodd;stroke:none"
         d="m 332.309,1001.63 -138.235,56.53 h 185.957 l 10.492,77.23 H 144.82 c -44.9333,0 -86.0075,-39.99 -84.5075,-85.07 1.0977,-33.05 16.0703,-56.507 47.0115,-69.398 L 241.645,924.957 H 45.1992 L 34.5664,847.164 275.223,846.602 c 50.34,-0.118 93.347,27.203 101.859,78.914 6.574,39.922 -8.793,61.402 -44.773,76.114" /><path
         id="path18"
         style="fill:#231f20;fill-opacity:1;fill-rule:evenodd;stroke:none"
         d="m 388.277,846.602 h 138.797 l 12.379,99.621 h 43.621 l -12.383,-99.621 h 138.801 l 35.887,288.788 H 606.586 l -12.453,-100.18 h -43.617 l 12.449,100.18 H 424.168 L 388.277,846.602" /><path
         id="path20"
         style="fill:#231f20;fill-opacity:1;fill-rule:evenodd;stroke:none"
         d="m 1087.55,982.043 c -3.57,-30.934 -18.42,-56.176 -38.31,-81.152 -15.13,-19.012 -36.1,-34.379 -57.642,-45.332 -25.25,-12.836 -50.285,-17.86 -78.352,-20.149 -40.805,-3.328 -75.07,3.965 -108.578,29.664 -17.887,13.715 -32.59,33.395 -39.734,54.848 -5.922,17.766 -3.965,34.707 -1.746,52.605 l 20.214,162.863 h 142.153 l -25.246,-199.8 h 36.687 l 25.25,199.8 h 142.994 l -17.69,-153.347" /><path
         id="path22"
         style="fill:#231f20;fill-opacity:1;fill-rule:evenodd;stroke:none"
         d="m 1229.46,846.602 h -121.87 l 22.33,177.968 h 198.6 l 5.03,34.14 h -199.34 l 9.61,76.68 h 246.68 c 95.95,0 97.86,-137.437 -11.87,-161.054 l 101.75,-54.961 26.43,216.015 h 306.91 l -7.25,-66.04 h -164.95 l -4.86,-39.74 h 165.44 l -8.37,-77.79 h -166.59 l -4.8,-39.175 h 166.32 l -7.24,-66.043 h -309.3 l -4.95,-41.993 -225.78,137.118 -11.93,-95.125" /><path
         id="path24"
         style="fill:#231f20;fill-opacity:1;fill-rule:evenodd;stroke:none"
         d="m 1875.66,1109.14 h -5.15 v -11.03 h 5.32 c 3,0 5.15,0.43 6.46,1.25 1.3,0.85 1.95,2.19 1.95,4.04 0,2.03 -0.68,3.48 -2.04,4.38 -1.36,0.91 -3.53,1.36 -6.54,1.36 z m 1.12,4.06 c 4.62,0 8.1,-0.76 10.43,-2.29 2.32,-1.53 3.49,-3.8 3.49,-6.83 0,-2.37 -0.67,-4.32 -2,-5.88 -1.32,-1.57 -3.2,-2.6 -5.61,-3.08 l 7.45,-15.19 h -7.06 l -6.78,14.2 h -6.19 v -14.2 h -6.29 v 33.27 z m 24.83,-17.49 c 0,3.56 -0.62,6.88 -1.86,9.99 -1.23,3.1 -3.03,5.83 -5.39,8.19 -2.47,2.46 -5.24,4.34 -8.34,5.63 -3.1,1.29 -6.4,1.93 -9.92,1.93 -3.45,0 -6.71,-0.63 -9.77,-1.88 -3.06,-1.23 -5.74,-3.03 -8.02,-5.36 -2.5,-2.52 -4.43,-5.36 -5.78,-8.51 -1.34,-3.16 -2.01,-6.42 -2.01,-9.75 0,-3.31 0.64,-6.51 1.93,-9.57 1.29,-3.07 3.15,-5.81 5.57,-8.26 2.39,-2.44 5.14,-4.31 8.25,-5.63 3.1,-1.32 6.3,-1.97 9.6,-1.97 3.45,0 6.74,0.64 9.84,1.92 3.1,1.26 5.93,3.12 8.48,5.56 2.39,2.33 4.23,5.02 5.51,8.05 1.27,3.05 1.91,6.26 1.91,9.66 z m -25.62,29.64 c 4.01,0 7.8,-0.74 11.39,-2.23 3.59,-1.49 6.77,-3.65 9.57,-6.49 2.73,-2.76 4.83,-5.93 6.3,-9.49 1.45,-3.56 2.18,-7.27 2.18,-11.15 0,-4.02 -0.73,-7.79 -2.18,-11.31 -1.47,-3.52 -3.59,-6.63 -6.38,-9.34 -2.9,-2.81 -6.14,-4.97 -9.74,-6.46 -3.61,-1.51 -7.32,-2.26 -11.14,-2.26 -3.91,0 -7.64,0.75 -11.19,2.26 -3.54,1.49 -6.72,3.68 -9.54,6.55 -2.78,2.81 -4.9,5.98 -6.37,9.5 -1.46,3.52 -2.19,7.2 -2.19,11.06 0,3.88 0.76,7.63 2.3,11.26 1.52,3.61 3.72,6.88 6.59,9.77 2.68,2.75 5.75,4.81 9.21,6.23 3.47,1.39 7.2,2.1 11.19,2.1" /></g></g></svg>