<?xml version="1.0" encoding="UTF-8" standalone="no"?>
<svg
   xmlns:dc="http://purl.org/dc/elements/1.1/"
   xmlns:cc="http://creativecommons.org/ns#"
   xmlns:rdf="http://www.w3.org/1999/02/22-rdf-syntax-ns#"
   xmlns:svg="http://www.w3.org/2000/svg"
   xmlns="http://www.w3.org/2000/svg"
   viewBox="0 0 793.70135 1122.52"
   height="1122.52"
   width="793.70135"
   xml:space="preserve"
   id="svg2"
   version="1.1"><metadata
     id="metadata8"><rdf:RDF><cc:Work
         rdf:about=""><dc:format>image/svg+xml</dc:format><dc:type
           rdf:resource="http://purl.org/dc/dcmitype/StillImage" /></cc:Work></rdf:RDF></metadata><defs
     id="defs6"><clipPath
       id="clipPath18"
       clipPathUnits="userSpaceOnUse"><path
         id="path16"
         d="M 0,841.89 H 595.276 V 0 H 0 Z" /></clipPath></defs><g
     transform="matrix(1.3333333,0,0,-1.3333333,0,1122.52)"
     id="g10"><g
       id="g12"><g
         clip-path="url(#clipPath18)"
         id="g14"><g
           transform="translate(479.8057,394.7139)"
           id="g20"><path
             id="path22"
             style="fill:#231f20;fill-opacity:1;fill-rule:evenodd;stroke:none"
             d="m 0,0 c -1.991,0 -3.545,1.541 -3.545,3.638 0,2.059 1.554,3.613 3.545,3.613 1.969,0 3.522,-1.554 3.522,-3.613 C 3.522,1.541 1.969,0 0,0 m 0,7.978 c -2.394,0 -4.419,-1.843 -4.419,-4.34 0,-2.521 2.025,-4.363 4.419,-4.363 2.372,0 4.397,1.842 4.397,4.363 0,2.497 -2.025,4.34 -4.397,4.34" /></g><g
           transform="translate(478.8867,398.6553)"
           id="g24"><path
             id="path26"
             style="fill:#231f20;fill-opacity:1;fill-rule:evenodd;stroke:none"
             d="M 0,0 V 1.555 H 1.035 C 1.564,1.555 2.129,1.438 2.129,0.817 2.129,0.048 1.554,0 0.908,0 Z m 1.623,-0.615 c 0.736,0.093 1.3,0.484 1.3,1.381 0,0.99 -0.586,1.427 -1.773,1.427 H -0.76 V -2.824 H 0 v 2.176 h 0.874 l 1.325,-2.176 h 0.852 z" /></g><g
           transform="translate(124.7012,437.8408)"
           id="g28"><path
             id="path30"
             style="fill:#231f20;fill-opacity:1;fill-rule:evenodd;stroke:none"
             d="M 0,0 C 1.47,1.764 24.729,25.054 55.956,13.85 65.396,10.321 86.302,5.911 101.328,9.439 96.035,1.47 80.422,-14.176 62.456,-22.701 50.664,-29.17 30.021,-40.668 27.374,-43.607 c 8.264,-0.883 25.348,-3.561 36.258,-7.971 10.909,-4.41 27.374,-12.674 39.46,-1.764 0.619,10.028 0.619,18.88 0.619,18.88 0,0 1.176,7.056 -7.381,4.998 4.998,3.822 9.146,8.558 13.85,9.734 4.704,1.175 7.937,3.203 7.644,-5.324 -0.295,-8.526 -1.177,-16.79 -1.177,-16.79 0,0 -2.32,-9.114 5.619,-7.644 4.998,1.47 4.41,2.058 4.704,6.762 0.294,4.705 2.057,26.524 2.645,30.934 0.588,4.41 2.09,8.526 -8.526,7.056 4.116,4.736 7.676,10.028 14.438,10.91 6.762,0.882 8.527,-0.263 7.938,-7.644 -0.588,-7.382 -3.821,-26.849 -3.527,-35.082 0.293,-8.232 0.261,-12.642 7.349,-12.642 0,4.116 0.031,22.702 22.408,31.522 -6.5,7.35 -21.525,25.022 -25.935,33.874 -4.41,8.851 -7.939,22.964 -4.705,31.522 3.234,8.557 9.115,14.731 16.79,15.907 -1.764,-3.821 -9.702,-14.732 -4.409,-27.993 5.292,-13.262 6.499,-16.234 14.437,-25.936 7.939,-9.702 27.993,-29.432 30.64,-39.46 2.94,4.41 11.204,13.262 15.026,15.32 -0.295,-5.88 -0.589,-10.322 -0.589,-10.322 l 11.467,6.5 c 0,0 10.616,8.494 9.733,-3.853 -0.881,-12.349 -1.763,-18.261 -1.763,-18.261 0,0 -1.796,-8.82 6.174,-7.644 1.47,3.234 2.94,9.734 16.79,17.084 -2.646,3.234 -4.442,7.644 -15.615,4.998 2.384,4.116 9.441,17.41 23.584,9.44 4.41,-3.234 12.968,-19.762 16.79,-22.408 3.823,-2.646 6.468,-6.468 13.85,-3.822 0.294,5.88 1.733,17.378 -9.733,17.966 5.029,4.736 17.965,18.554 24.759,2.352 3.823,3.56 21.526,22.376 28.875,1.47 4.705,-11.172 9.441,-28.256 25.937,-23.552 -2.059,-3.528 -9.146,-15.908 -22.996,-11.791 -5.292,1.763 -11.204,7.643 -14.732,19.435 -2.058,7.676 -2.909,11.204 -8.232,11.204 -4.148,0 -6.794,-4.147 -7.676,-11.792 -1.176,-6.173 -3.528,-20.024 -17.966,-23.845 0.294,3.233 1.176,8.231 1.176,8.231 0,0 -13.524,-12.968 -22.67,0.589 -8.851,-4.705 -14.731,-11.204 -27.994,-1.765 -6.205,-3.528 -13.587,-5.586 -20.056,-1.175 -2.351,2.351 -4.115,6.173 -3.233,13.555 0.882,7.382 2.972,15.614 -7.057,13.556 -0.588,-6.468 0.294,-34.756 -10.615,-50.958 -5.587,-7.676 -18.849,-18.585 -31.228,-18.291 -5.618,0 -9.44,-0.263 -9.734,4.147 -0.294,4.411 2.972,5.586 6.206,4.704 3.234,-0.881 10.322,-1.794 19.142,3.529 8.82,5.323 9.733,23.878 9.733,23.878 l 1.177,21.199 c 0,0 -13.262,-18.26 -27.7,-19.73 -6.794,-0.881 -13.231,2.027 -16.496,5.88 -2.352,-1.763 -13.293,-12.38 -21.82,1.176 -7.349,-5.88 -10.29,-11.76 -22.082,-5.586 -6.794,-6.469 -14.437,-17.409 -44.783,-10.027 -12.969,2.971 -40.699,16.527 -79.277,5.323 5.911,8.232 9.145,18.849 55.987,35.933 7.97,3.821 26.555,13.881 35.669,23.583 C 55.368,-2.353 54.748,-1.47 42.694,1.47 35.932,3.234 12.38,6.205 0,0 m 194.655,2.151 13.505,9.534 c 0,0 6.919,-8.335 2.296,-17.094 -1.486,-2.684 -4.588,-8.176 -12.118,-10.114 0.711,2.002 4.2,8.111 0.84,12.958 -2.068,2.196 -4.523,4.716 -4.523,4.716 m 20.389,3.202 13.505,9.533 c 0,0 6.919,-8.335 2.297,-17.094 -1.487,-2.684 -4.588,-8.176 -12.118,-10.114 0.71,2.003 4.2,8.112 0.839,12.958 -2.067,2.197 -4.523,4.717 -4.523,4.717 m -40.315,-29.242 c 0,0 6.383,-4.684 6.769,-14.177 0.077,-2.856 -2.601,-9.415 -9.16,-9.03 -6.561,0.387 -10.265,4.346 -8.722,10.651 1.004,4.299 5.89,10.395 11.113,12.556 M 256.01,-35.08 c 0,0 5.943,-10.009 7.718,-11.707 -1.853,-0.463 -9.083,-3.936 -12.093,0.617 -1.544,2.393 -1.182,6.846 4.375,11.09 m -152.078,38.753 14.164,9.853 c 0,0 3.756,-3.325 2.463,-10.838 -0.801,-4.742 -4.188,-13.733 -12.44,-17.12 0.862,1.909 3.388,5.049 2.34,8.806 -0.677,2.525 -3.51,7.575 -6.527,9.299" /></g></g></g></g></svg>